<?xml version="1.0" encoding="utf-8"?>
<!-- Generator: Adobe Illustrator 19.2.1, SVG Export Plug-In . SVG Version: 6.00 Build 0)  -->
<svg version="1.1" id="Layer_1" xmlns="http://www.w3.org/2000/svg" xmlns:xlink="http://www.w3.org/1999/xlink" x="0px" y="0px"
	 viewBox="0 0 20 20" style="enable-background:new 0 0 20 20;" xml:space="preserve">
<path d="M10,0.5c-5.3,0-9.5,4.3-9.5,9.5c0,5.3,4.3,9.5,9.5,9.5c5.3,0,9.5-4.3,9.5-9.5C19.5,4.7,15.2,0.5,10,0.5z M12.5,10
	c-0.5,0-1.1,0-1.6,0c0,2,0,3.9,0,5.9c-0.8,0-1.6,0-2.4,0c0-1.9,0-3.9,0-5.8c-0.4,0-0.8,0-1.2,0c0-0.7,0-1.4,0-2.1c0.4,0,0.7,0,1.1,0
	c0-0.4,0-0.8,0-1.2c0-0.3,0-0.6,0.1-0.9c0.2-1,0.9-1.6,1.9-1.7c0.7-0.1,1.5,0,2.2,0c0,0.7,0,1.3,0,2c-0.4,0-0.8,0-1.2,0
	c-0.5,0-0.6,0.2-0.6,0.6c0,0.4,0,0.7,0,1.1c0.6,0,1.2,0,1.9,0C12.7,8.6,12.6,9.3,12.5,10z"/>
</svg>
