<?xml version="1.0" encoding="utf-8"?>
<!-- Generator: Adobe Illustrator 19.2.1, SVG Export Plug-In . SVG Version: 6.00 Build 0)  -->
<svg version="1.1" id="Layer_1" xmlns="http://www.w3.org/2000/svg" xmlns:xlink="http://www.w3.org/1999/xlink" x="0px" y="0px"
	 viewBox="0 0 20 20" style="enable-background:new 0 0 20 20;" xml:space="preserve">
<g>
	<path d="M-474,78.9c5.5,0,10,4.4,10,10c0,5.5-4.5,10-10,10c-5.5,0-10-4.5-10-10C-484,83.4-479.5,78.9-474,78.9z M-479.9,93.3
		c0.1,0,0.1,0.1,0.2,0.1c1.5,0.8,3.1,1.1,4.8,0.9c3.9-0.6,5.9-4,5.9-6.9c0-0.4,0.1-0.6,0.4-0.8c0.3-0.3,0.6-0.6,0.8-0.9c0,0,0,0,0,0
		c-0.4,0.1-0.8,0.2-1.3,0.3c0,0,0,0,0-0.1c0.5-0.3,0.8-0.7,1-1.3c-0.4,0.2-0.9,0.3-1.3,0.5c-0.2,0.1-0.3,0-0.4-0.1
		c-0.7-0.6-1.6-0.8-2.5-0.5c-0.9,0.3-1.5,1-1.6,1.9c-0.1,0.3,0,0.7,0,1c-2.1-0.1-3.8-1-5.2-2.6c-0.6,1.3-0.3,2.4,0.7,3.4
		c0,0,0,0,0,0c-0.3-0.1-0.7-0.2-1-0.3c0,0.6,0.2,1.1,0.5,1.5c0.4,0.5,0.8,0.7,1.4,0.9c0,0,0,0,0,0.1c-0.3,0-0.7,0-1.1,0
		c0.2,0.5,0.5,0.9,0.9,1.2c0.4,0.3,0.9,0.5,1.5,0.5C-477.4,93.1-478.6,93.4-479.9,93.3z"/>
</g>
<g>
	<path d="M-474,78.9c5.5,0,10,4.4,10,10c0,5.5-4.5,10-10,10c-5.5,0-10-4.5-10-10C-484,83.4-479.5,78.9-474,78.9z M-479.9,93.3
		c0.1,0,0.1,0.1,0.2,0.1c1.5,0.8,3.1,1.1,4.8,0.9c3.9-0.6,5.9-4,5.9-6.9c0-0.4,0.1-0.6,0.4-0.8c0.3-0.3,0.6-0.6,0.8-0.9c0,0,0,0,0,0
		c-0.4,0.1-0.8,0.2-1.3,0.3c0,0,0,0,0-0.1c0.5-0.3,0.8-0.7,1-1.3c-0.4,0.2-0.9,0.3-1.3,0.5c-0.2,0.1-0.3,0-0.4-0.1
		c-0.7-0.6-1.6-0.8-2.5-0.5c-0.9,0.3-1.5,1-1.6,1.9c-0.1,0.3,0,0.7,0,1c-2.1-0.1-3.8-1-5.2-2.6c-0.6,1.3-0.3,2.4,0.7,3.4
		c0,0,0,0,0,0c-0.3-0.1-0.7-0.2-1-0.3c0,0.6,0.2,1.1,0.5,1.5c0.4,0.5,0.8,0.7,1.4,0.9c0,0,0,0,0,0.1c-0.3,0-0.7,0-1.1,0
		c0.2,0.5,0.5,0.9,0.9,1.2c0.4,0.3,0.9,0.5,1.5,0.5C-477.4,93.1-478.6,93.4-479.9,93.3z"/>
</g>
<g>
	<path d="M19.5,10c0,5.3-4.3,9.5-9.5,9.5c-5.3,0-9.5-4.2-9.5-9.5c0-5.3,4.3-9.5,9.5-9.5C15.3,0.5,19.5,4.8,19.5,10z M4.8,10.1
		C4.8,10.1,4.8,10.1,4.8,10.1c0,0.7,0,1.4,0,2.1c0,0.3,0,0.7,0.1,1c0.3,1.2,1.4,2,2.8,2c1.4,0,2.9,0,4.3,0c1.7,0,2.9-1.2,2.9-2.9
		c0-1.5,0-3,0-4.5C15,6.2,13.8,5,12.2,5c-1.5,0-3,0-4.5,0C6.1,5,4.9,6.1,4.8,7.7C4.8,8.5,4.8,9.3,4.8,10.1z"/>
	<path d="M9.9,14.3c-0.7,0-1.4,0-2.1,0c-0.3,0-0.5,0-0.8-0.1c-0.8-0.2-1.3-0.9-1.3-1.9c0-1.5,0-3,0-4.4c0-1.2,0.7-1.9,1.8-1.9
		c1.6-0.1,3.2,0,4.8,0c1.1,0,1.8,0.8,1.8,1.9c0,1.6,0,3.1,0,4.7c0,1-0.8,1.8-1.8,1.8C11.5,14.3,10.7,14.3,9.9,14.3
		C9.9,14.3,9.9,14.3,9.9,14.3z M9.9,12.7c1.5,0,2.7-1.2,2.7-2.6c0-1.4-1.2-2.6-2.6-2.6c-1.5,0-2.7,1.2-2.6,2.7
		C7.3,11.5,8.5,12.7,9.9,12.7z M13.3,7.3c0-0.4-0.3-0.6-0.6-0.6c-0.3,0-0.6,0.3-0.6,0.6c0,0.3,0.3,0.6,0.6,0.6
		C13,7.9,13.3,7.7,13.3,7.3z"/>
	
		<ellipse transform="matrix(1 -4.423092e-003 4.423092e-003 1 -4.448014e-002 4.398166e-002)" cx="9.9" cy="10.1" rx="1.7" ry="1.7"/>
</g>
</svg>
