<?xml version="1.0" encoding="utf-8"?>
<!-- Generator: Adobe Illustrator 19.2.1, SVG Export Plug-In . SVG Version: 6.00 Build 0)  -->
<svg version="1.1" id="Layer_1" xmlns="http://www.w3.org/2000/svg" xmlns:xlink="http://www.w3.org/1999/xlink" x="0px" y="0px"
	 viewBox="0 0 20 20" style="enable-background:new 0 0 20 20;" xml:space="preserve">
<g>
	<path d="M-474,78.9c5.5,0,10,4.4,10,10c0,5.5-4.5,10-10,10c-5.5,0-10-4.5-10-10C-484,83.4-479.5,78.9-474,78.9z M-479.9,93.3
		c0.1,0,0.1,0.1,0.2,0.1c1.5,0.8,3.1,1.1,4.8,0.9c3.9-0.6,5.9-4,5.9-6.9c0-0.4,0.1-0.6,0.4-0.8c0.3-0.3,0.6-0.6,0.8-0.9c0,0,0,0,0,0
		c-0.4,0.1-0.8,0.2-1.3,0.3c0,0,0,0,0-0.1c0.5-0.3,0.8-0.7,1-1.3c-0.4,0.2-0.9,0.3-1.3,0.5c-0.2,0.1-0.3,0-0.4-0.1
		c-0.7-0.6-1.6-0.8-2.5-0.5c-0.9,0.3-1.5,1-1.6,1.9c-0.1,0.3,0,0.7,0,1c-2.1-0.1-3.8-1-5.2-2.6c-0.6,1.3-0.3,2.4,0.7,3.4
		c0,0,0,0,0,0c-0.3-0.1-0.7-0.2-1-0.3c0,0.6,0.2,1.1,0.5,1.5c0.4,0.5,0.8,0.7,1.4,0.9c0,0,0,0,0,0.1c-0.3,0-0.7,0-1.1,0
		c0.2,0.5,0.5,0.9,0.9,1.2c0.4,0.3,0.9,0.5,1.5,0.5C-477.4,93.1-478.6,93.4-479.9,93.3z"/>
</g>
<g>
	<path d="M-474,78.9c5.5,0,10,4.4,10,10c0,5.5-4.5,10-10,10c-5.5,0-10-4.5-10-10C-484,83.4-479.5,78.9-474,78.9z M-479.9,93.3
		c0.1,0,0.1,0.1,0.2,0.1c1.5,0.8,3.1,1.1,4.8,0.9c3.9-0.6,5.9-4,5.9-6.9c0-0.4,0.1-0.6,0.4-0.8c0.3-0.3,0.6-0.6,0.8-0.9c0,0,0,0,0,0
		c-0.4,0.1-0.8,0.2-1.3,0.3c0,0,0,0,0-0.1c0.5-0.3,0.8-0.7,1-1.3c-0.4,0.2-0.9,0.3-1.3,0.5c-0.2,0.1-0.3,0-0.4-0.1
		c-0.7-0.6-1.6-0.8-2.5-0.5c-0.9,0.3-1.5,1-1.6,1.9c-0.1,0.3,0,0.7,0,1c-2.1-0.1-3.8-1-5.2-2.6c-0.6,1.3-0.3,2.4,0.7,3.4
		c0,0,0,0,0,0c-0.3-0.1-0.7-0.2-1-0.3c0,0.6,0.2,1.1,0.5,1.5c0.4,0.5,0.8,0.7,1.4,0.9c0,0,0,0,0,0.1c-0.3,0-0.7,0-1.1,0
		c0.2,0.5,0.5,0.9,0.9,1.2c0.4,0.3,0.9,0.5,1.5,0.5C-477.4,93.1-478.6,93.4-479.9,93.3z"/>
</g>
<g>
	<path d="M10,0.5c5.2,0,9.5,4.2,9.5,9.5c0,5.2-4.2,9.5-9.5,9.5c-5.3,0-9.5-4.3-9.5-9.5C0.5,4.7,4.7,0.5,10,0.5z M4.4,14.2
		c0.1,0,0.1,0.1,0.2,0.1c1.4,0.8,2.9,1.1,4.6,0.8c3.7-0.6,5.6-3.8,5.6-6.5c0-0.3,0.1-0.6,0.4-0.8c0.3-0.2,0.5-0.6,0.8-0.8
		c0,0,0,0,0,0c-0.4,0.1-0.8,0.2-1.2,0.3c0,0,0,0,0-0.1c0.4-0.3,0.8-0.7,0.9-1.2c-0.4,0.2-0.8,0.3-1.3,0.5c-0.2,0.1-0.3,0-0.4-0.1
		c-0.7-0.6-1.5-0.8-2.4-0.5c-0.9,0.3-1.4,0.9-1.6,1.8c-0.1,0.3,0,0.6,0,1c-2-0.1-3.6-1-4.9-2.5C4.5,7.4,4.8,8.5,5.8,9.3c0,0,0,0,0,0
		c-0.3-0.1-0.6-0.2-1-0.3c0,0.5,0.2,1,0.5,1.5c0.3,0.4,0.8,0.7,1.3,0.9c0,0,0,0,0,0.1c-0.3,0-0.6,0-1,0c0.2,0.5,0.4,0.9,0.8,1.2
		c0.4,0.3,0.8,0.4,1.4,0.5C6.8,13.9,5.7,14.2,4.4,14.2z"/>
</g>
</svg>
